<svg width="22" height="20" viewBox="0 0 22 20" fill="none" xmlns="http://www.w3.org/2000/svg">
<path d="M13.1884 19.0667H7.91304V18.1133H13.1884V19.0667ZM11.8696 7.62667V4.76667H9.23188V7.62667L7.91304 9.05667V17.16H13.1884V9.05667L11.8696 7.62667ZM10.5507 0C10.5507 0 9.23188 0.953333 9.23188 2.86V3.81333H11.8696V2.86C11.8696 2.86 11.8696 0.953333 10.5507 0ZM5.27536 19.0667H0V18.1133H5.27536V19.0667ZM3.95652 7.62667V4.76667H1.31884V7.62667L0 9.05667V17.16H5.27536V9.05667L3.95652 7.62667ZM2.63768 0C2.63768 0 1.31884 0.953333 1.31884 2.86V3.81333H3.95652V2.86C3.95652 2.86 3.95652 0.953333 2.63768 0ZM21.1014 19.0667H15.8261V18.1133H21.1014V19.0667ZM19.7826 7.62667V4.76667H17.1449V7.62667L15.8261 9.05667V17.16H21.1014V9.05667L19.7826 7.62667ZM18.4638 0C18.4638 0 17.1449 0.953333 17.1449 2.86V3.81333H19.7826V2.86C19.7826 2.86 19.7826 0.953333 18.4638 0Z" fill="white"/>
</svg>
