<svg width="17" height="23" viewBox="0 0 17 23" fill="none" xmlns="http://www.w3.org/2000/svg">
<path fill-rule="evenodd" clip-rule="evenodd" d="M4.85714 3.83333C4.85714 2.81667 5.24094 1.84165 5.92411 1.12276C6.60728 0.403868 7.53385 0 8.5 0C9.46615 0 10.3927 0.403868 11.0759 1.12276C11.7591 1.84165 12.1429 2.81667 12.1429 3.83333V8.94444C12.1429 9.96111 11.7591 10.9361 11.0759 11.655C10.3927 12.3739 9.46615 12.7778 8.5 12.7778C7.53385 12.7778 6.60728 12.3739 5.92411 11.655C5.24094 10.9361 4.85714 9.96111 4.85714 8.94444V3.83333ZM9.71429 17.7994C11.7375 17.4919 13.5877 16.4274 14.9258 14.8011C16.2639 13.1748 17.0003 11.0956 17 8.94444C17 8.60556 16.8721 8.28055 16.6443 8.04092C16.4166 7.80129 16.1078 7.66667 15.7857 7.66667C15.4637 7.66667 15.1548 7.80129 14.9271 8.04092C14.6994 8.28055 14.5714 8.60556 14.5714 8.94444C14.5714 10.6389 13.9318 12.2639 12.7931 13.4621C11.6545 14.6602 10.1102 15.3333 8.5 15.3333C6.88976 15.3333 5.34547 14.6602 4.20685 13.4621C3.06824 12.2639 2.42857 10.6389 2.42857 8.94444C2.42857 8.60556 2.30064 8.28055 2.07292 8.04092C1.84519 7.80129 1.53633 7.66667 1.21429 7.66667C0.892237 7.66667 0.583379 7.80129 0.355656 8.04092C0.127933 8.28055 7.52081e-08 8.60556 7.52081e-08 8.94444C-0.000271711 11.0956 0.736101 13.1748 2.07419 14.8011C3.41227 16.4274 5.26246 17.4919 7.28571 17.7994V20.4444H3.64286C3.32081 20.4444 3.01195 20.5791 2.78423 20.8187C2.5565 21.0583 2.42857 21.3833 2.42857 21.7222C2.42857 22.0611 2.5565 22.3861 2.78423 22.6257C3.01195 22.8654 3.32081 23 3.64286 23H13.3571C13.6792 23 13.988 22.8654 14.2158 22.6257C14.4435 22.3861 14.5714 22.0611 14.5714 21.7222C14.5714 21.3833 14.4435 21.0583 14.2158 20.8187C13.988 20.5791 13.6792 20.4444 13.3571 20.4444H9.71429V17.7994Z" fill="white"/>
</svg>
