<svg width="20" height="18" viewBox="0 0 20 18" fill="none" xmlns="http://www.w3.org/2000/svg">
<path d="M19.343 15.7743L19.3428 15.7735C19.1206 14.9557 18.444 14.2892 17.5403 14.0187L17.5403 14.0186L13.8735 12.9191L13.8638 12.9162L13.8639 12.9159C13.3658 12.7291 13.0174 12.2823 12.7858 11.8425C12.5524 11.3994 12.4237 10.9374 12.3772 10.6787L12.3608 10.5876L12.435 10.5321C13.0815 10.0483 13.4954 9.36454 13.5989 8.62197C13.5851 8.4559 13.631 8.29129 13.7277 8.1528L13.761 8.10515L13.8177 8.09237C13.906 8.07246 13.9709 8.01732 13.9993 7.95301L14.0002 7.95113C14.2322 7.44565 14.378 6.91205 14.4331 6.36826C14.4327 6.35379 14.4305 6.33939 14.4264 6.3253L14.426 6.32369L14.426 6.32368C14.3765 6.14222 14.2569 5.97841 14.0835 5.86314L14.0165 5.81863V5.73822V3.74996C14.0165 3.16239 13.9168 2.76098 13.7736 2.47641C13.6313 2.19371 13.441 2.01622 13.2417 1.8836L13.1857 1.84634L13.1763 1.77975C13.1073 1.29288 12.4989 0.150831 10.0025 0.15C7.80723 0.230797 6.07184 1.81042 5.98302 3.75338V5.73825V5.81867L5.91604 5.86318C5.7426 5.97845 5.62302 6.14226 5.57354 6.32372L5.5731 6.32534L5.57309 6.32533C5.56908 6.33943 5.56686 6.35384 5.56641 6.3683C5.62147 6.91237 5.76731 7.44622 5.99935 7.95195L6.00254 7.95891L6.00501 7.96615C6.02263 8.01788 6.0726 8.06636 6.14701 8.08366L6.16122 8.08697L6.17454 8.09296C6.24488 8.12458 6.29933 8.19438 6.33493 8.27531C6.37189 8.35935 6.39606 8.471 6.39717 8.61464C6.49957 9.36216 6.91645 10.0504 7.56848 10.5357L7.64286 10.5911L7.6266 10.6823C7.58061 10.9405 7.45275 11.402 7.22349 11.8435C6.99622 12.2812 6.6549 12.7269 6.16838 12.9099L6.15862 12.9136L6.15851 12.9132L2.45934 14.0187C1.5564 14.2892 0.880163 14.955 0.657645 15.7722L0.657444 15.7729L0.157429 17.5729L0.157273 17.5734C0.12769 17.6784 0.194223 17.8072 0.347673 17.8422L0.347755 17.8423C0.370052 17.8474 0.393129 17.85 0.416382 17.85H19.5834C19.5834 17.85 19.5834 17.85 19.5834 17.85C19.7459 17.8499 19.8499 17.7348 19.85 17.6251C19.85 17.6081 19.8477 17.5911 19.8431 17.5743L19.343 15.7743ZM19.343 15.7743L19.843 17.5742L19.343 15.7743ZM6.11556 12.7695C6.98473 12.4425 7.39142 11.1473 7.47892 10.656C6.79406 10.1463 6.35311 9.41913 6.24721 8.62502L6.11556 12.7695ZM6.11556 12.7695L2.41629 13.875L6.11556 12.7695ZM5.41633 6.375C5.47242 6.93866 5.62301 7.49142 5.86302 8.0145L5.41633 6.375Z" fill="white" fill-opacity="0.75" stroke="black" stroke-width="0.3"/>
</svg>
