<svg width="31" height="36" viewBox="0 0 31 36" fill="none" xmlns="http://www.w3.org/2000/svg">
<g filter="url(#filter0_d_119:14)">
<path d="M22 20.9201C22 24.909 19.4889 27.4201 15.5 27.4201C11.5111 27.4201 9 24.909 9 20.9201C9 16.6395 13.6597 10.8609 15.0888 9.18936C15.1396 9.12997 15.2027 9.0823 15.2738 9.04961C15.3448 9.01693 15.422 9 15.5002 9C15.5784 9 15.6557 9.01693 15.7267 9.04961C15.7977 9.0823 15.8608 9.12997 15.9117 9.18936C17.3403 10.8609 22 16.6395 22 20.9201Z" stroke="#06F0FF" stroke-miterlimit="10"/>
</g>
<path d="M19.4722 21.2812C19.4722 22.1431 19.1298 22.9698 18.5203 23.5793C17.9108 24.1887 17.0842 24.5312 16.2222 24.5312" stroke="#06F0FF" stroke-linecap="round" stroke-linejoin="round"/>
<defs>
<filter id="filter0_d_119:14" x="0.5" y="0.5" width="30" height="35.42" filterUnits="userSpaceOnUse" color-interpolation-filters="sRGB">
<feFlood flood-opacity="0" result="BackgroundImageFix"/>
<feColorMatrix in="SourceAlpha" type="matrix" values="0 0 0 0 0 0 0 0 0 0 0 0 0 0 0 0 0 0 127 0" result="hardAlpha"/>
<feOffset/>
<feGaussianBlur stdDeviation="4"/>
<feColorMatrix type="matrix" values="0 0 0 0 0.025 0 0 0 0 0.9415 0 0 0 0 1 0 0 0 0.75 0"/>
<feBlend mode="normal" in2="BackgroundImageFix" result="effect1_dropShadow_119:14"/>
<feBlend mode="normal" in="SourceGraphic" in2="effect1_dropShadow_119:14" result="shape"/>
</filter>
</defs>
</svg>
